<svg width="20" height="18" viewBox="0 0 20 18" fill="none" xmlns="http://www.w3.org/2000/svg">
<path d="M7.74983 17.85C9.52983 17.15 9.13983 15.22 8.23983 14C7.34983 12.75 6.11983 11.89 4.87983 11.06C3.99509 10.5023 3.20513 9.8069 2.53983 8.99997C2.25983 8.66997 1.68983 8.05997 2.26983 7.93997C2.85983 7.81997 3.87983 8.39997 4.39983 8.61997C5.30983 8.99997 6.20983 9.43997 7.04983 9.95997L8.05983 8.25997C6.49983 7.22997 4.49983 6.31997 2.63983 6.04997C1.57983 5.88997 0.459833 6.10997 0.099833 7.25997C-0.220167 8.24997 0.289833 9.24997 0.869833 10.03C2.23983 11.86 4.36983 12.74 5.95983 14.32C6.29983 14.65 6.70983 15.04 6.90983 15.5C7.11983 15.94 7.06983 15.97 6.59983 15.97C5.35983 15.97 3.80983 15 2.79983 14.36L1.78983 16.06C3.31983 17 5.87983 18.47 7.74983 17.85ZM18.8398 2.24997C19.0598 2.02997 19.0598 1.66997 18.8398 1.45997L17.5398 0.159972C17.4351 0.0590267 17.2953 0.00262451 17.1498 0.00262451C17.0044 0.00262451 16.8646 0.0590267 16.7598 0.159972L15.7398 1.17997L17.8198 3.25997L18.8398 2.24997ZM8.99983 7.91997V9.99997H11.0798L17.2298 3.84997L15.1498 1.76997L8.99983 7.91997Z" fill="#E31F71"/>
</svg>
